<?xml version="1.0" standalone="no"?>
<!DOCTYPE svg PUBLIC "-//W3C//DTD SVG 20010904//EN"
 "http://www.w3.org/TR/2001/REC-SVG-20010904/DTD/svg10.dtd">
<svg version="1.0" xmlns="http://www.w3.org/2000/svg"
 width="163.000000pt" height="59.000000pt" viewBox="0 0 163.000000 59.000000"
 preserveAspectRatio="xMidYMid meet">

<g transform="translate(0.000000,59.000000) scale(0.100000,-0.100000)"
fill="#000000" stroke="none">
<path d="M0 295 l0 -295 815 0 815 0 0 295 0 295 -815 0 -815 0 0 -295z m890
179 c0 -3 -24 -16 -54 -29 -58 -26 -96 -59 -96 -84 0 -14 2 -14 11 -1 8 11 9
6 5 -22 -2 -21 0 -40 5 -43 5 -4 9 5 9 19 0 34 15 34 16 0 1 -14 9 -33 18 -43
9 -10 16 -23 16 -29 0 -7 11 -12 24 -12 14 0 28 -4 31 -10 3 -5 -2 -10 -11
-10 -10 0 -14 -3 -11 -7 8 -7 85 15 105 30 8 6 12 6 12 -2 0 -17 -61 -51 -93
-51 -19 0 -26 -4 -21 -12 15 -23 -69 1 -99 29 -86 81 -70 209 33 261 40 20
100 30 100 16z m480 -184 l0 -170 -570 0 c-314 0 -570 1 -570 3 0 16 108 261
116 264 12 4 79 -136 70 -144 -3 -3 -11 6 -17 21 -11 24 -18 27 -52 24 -39 -3
-40 -4 -68 -73 -16 -38 -29 -73 -29 -77 0 -5 248 -8 550 -8 l551 0 -3 158 -3
157 -213 3 -213 2 -16 -37 c-9 -21 -17 -55 -17 -77 -1 -46 -25 -68 -50 -47
-23 19 -20 52 5 58 14 4 30 25 45 59 l24 54 230 0 230 0 0 -170z m123 149 c29
-47 -32 -101 -73 -64 -23 20 -25 37 -9 66 13 24 66 23 82 -2z m-989 -113 l22
-59 23 62 c17 47 27 61 42 61 18 0 20 -6 17 -72 -4 -88 -25 -107 -30 -26 l-3
53 -19 -52 c-11 -29 -25 -53 -32 -53 -7 0 -21 24 -31 53 l-18 52 -3 -53 c-5
-81 -26 -62 -30 27 -3 69 -2 72 19 69 16 -2 27 -18 43 -62z m166 -11 c0 -43
-4 -75 -10 -75 -6 0 -10 32 -10 75 0 43 4 75 10 75 6 0 10 -32 10 -75z m310
22 c0 -58 12 -77 47 -77 29 0 43 27 43 84 0 25 5 46 10 46 17 0 12 -111 -7
-132 -20 -22 -76 -24 -97 -2 -18 18 -23 134 -6 134 6 0 10 -24 10 -53z m206 6
c9 -27 20 -52 24 -56 4 -5 17 17 30 47 32 81 50 74 50 -19 0 -43 -4 -75 -10
-75 -5 0 -10 26 -10 58 l-1 57 -22 -54 c-13 -30 -28 -56 -34 -58 -6 -2 -19 20
-29 49 l-19 53 -5 -49 c-3 -27 -11 -51 -17 -54 -10 -3 -13 16 -13 72 0 68 2
76 19 76 14 0 24 -13 37 -47z m-280 -88 c-22 -17 -46 -20 -46 -6 0 10 22 18
50 20 11 0 10 -4 -4 -14z"/>
<path d="M731 324 c0 -11 3 -14 6 -6 3 7 2 16 -1 19 -3 4 -6 -2 -5 -13z"/>
<path d="M330 344 c-15 -39 -13 -44 21 -44 26 0 30 3 24 18 -4 9 -10 25 -12
35 -8 25 -22 21 -33 -9z"/>
<path d="M834 325 c-4 -9 -2 -21 4 -27 15 -15 44 -1 40 19 -4 23 -36 29 -44 8z"/>
<path d="M1420 435 c-10 -12 -10 -21 -2 -40 21 -45 77 -23 70 27 -4 28 -48 37
-68 13z m50 -27 c0 -16 -3 -18 -14 -9 -11 9 -15 9 -19 -1 -3 -7 -6 -3 -6 9 -1
21 16 35 32 26 4 -2 7 -13 7 -25z"/>
</g>
</svg>
